<svg width="57" height="56" viewBox="0 0 57 56" fill="none" xmlns="http://www.w3.org/2000/svg">
<path d="M35.9668 31.7587L36.8656 29.4859H39.4607L38.229 26.0383L39.7693 22.1432L44.181 33.8566H40.9275L40.1736 31.7587H35.9668Z" fill="#3D3D3D"/>
<path d="M33.1914 33.8567L37.9141 22.1434H34.7831L31.5523 29.7127L29.2551 22.1434H26.8484L24.3817 29.7127L22.642 26.2635L21.0679 31.1135L22.6662 33.8567H25.7475L27.9765 27.0686L30.1018 33.8567H33.1914Z" fill="#5A0FC8"/>
<path d="M16.0418 29.8357H17.9704C18.5546 29.8357 19.0748 29.7704 19.531 29.6399L20.0299 28.1035L21.4237 23.809C21.3176 23.6406 21.1963 23.4815 21.06 23.3315C20.3442 22.5393 19.2971 22.1432 17.9184 22.1432H13.0698V33.8566H16.0418V29.8357ZM18.5947 24.838C18.8741 25.1193 19.014 25.4959 19.014 25.9676C19.014 26.4429 18.891 26.8198 18.6452 27.0984C18.3756 27.4081 17.8794 27.5627 17.1563 27.5627H16.0418V24.4159H17.1645C17.8384 24.4159 18.315 24.5566 18.5947 24.838Z" fill="#3D3D3D"/>
</svg>
