<svg width="57" height="56" viewBox="0 0 57 56" fill="none" xmlns="http://www.w3.org/2000/svg">
<path d="M28.3712 12.5294L29.2061 14.0887C29.3938 14.3765 29.5971 14.6312 29.8366 14.8684C30.5388 15.558 31.1933 16.294 31.7957 17.0713C33.2103 18.9184 34.1644 20.9696 34.8458 23.1881C35.2544 24.5432 35.4763 25.9334 35.4929 27.3391C35.5614 31.5418 34.1126 35.1504 31.1916 38.1495C30.7164 38.625 30.2031 39.0614 29.6568 39.4541C29.3674 39.4541 29.2305 39.2334 29.1113 39.0302C28.8941 38.6535 28.7495 38.2397 28.685 37.8102C28.5824 37.3017 28.5149 36.7933 28.5482 36.2683V36.0311C28.5247 35.9806 28.2696 12.649 28.3712 12.5294Z" fill="#599636"/>
<path d="M28.3713 12.4779C28.3371 12.4099 28.3029 12.4614 28.2687 12.4944C28.2853 12.8347 28.166 13.138 27.9793 13.4277C27.774 13.7155 27.5022 13.9361 27.2295 14.1733C25.7143 15.478 24.5216 17.0538 23.5665 18.8163C22.2956 21.1884 21.6407 23.7305 21.4549 26.4069C21.3699 27.3722 21.7619 30.7786 22.0679 31.7615C22.9027 34.3707 24.4023 36.5571 26.3448 38.4547C26.8219 38.9116 27.3321 39.3355 27.86 39.7428C28.0135 39.7428 28.0301 39.6067 28.0653 39.5056C28.1326 39.2893 28.1839 39.0683 28.2188 38.8446L28.561 36.3034L28.3713 12.4779Z" fill="#6CAC48"/>
<path d="M29.2062 40.4865C29.2405 40.0977 29.4282 39.7749 29.6325 39.4531C29.4272 39.3686 29.2747 39.2004 29.1554 39.0128C29.0526 38.8351 28.9674 38.6479 28.9012 38.4538C28.6627 37.7422 28.6119 36.9956 28.5434 36.2684V35.828C28.4584 35.8961 28.4408 36.4716 28.4408 36.5571C28.391 37.3257 28.2885 38.0899 28.1338 38.8446C28.083 39.1498 28.0488 39.4541 27.8601 39.7253C27.8601 39.7594 27.8601 39.7934 27.8767 39.8439C28.1837 40.7422 28.2678 41.657 28.3196 42.5893V42.9295C28.3196 43.3359 28.303 43.2503 28.6422 43.3864C28.779 43.437 28.9315 43.4545 29.0684 43.5556C29.171 43.5556 29.1877 43.471 29.1877 43.403L29.1368 42.844V41.2847C29.1202 41.0125 29.171 40.7422 29.2053 40.4875L29.2062 40.4865Z" fill="#C2BFBF"/>
</svg>
