<svg width="57" height="56" viewBox="0 0 57 56" fill="none" xmlns="http://www.w3.org/2000/svg">
<path d="M43.5216 26.6138L29.8623 13.0312C29.0761 12.2489 27.8003 12.2489 27.0131 13.0312L24.1767 15.8518L27.7749 19.43C28.611 19.149 29.5698 19.3375 30.2363 20.0003C30.906 20.6674 31.0942 21.629 30.8049 22.4632L34.2725 25.9116C35.1114 25.6242 36.0794 25.8102 36.7495 26.4776C37.6859 27.4085 37.6859 28.9173 36.7495 29.8488C35.8128 30.7804 34.2956 30.7804 33.3584 29.8488C32.654 29.1476 32.4799 28.1188 32.8365 27.2559L29.6027 24.04L29.6023 32.5028C29.8368 32.6181 30.0509 32.7704 30.2363 32.9537C31.1728 33.8846 31.1728 35.3935 30.2363 36.3257C29.2996 37.2569 27.7817 37.2569 26.8463 36.3257C25.9099 35.3935 25.9099 33.8847 26.8463 32.9538C27.0708 32.7305 27.3375 32.5537 27.631 32.4336V23.8919C27.337 23.7725 27.0702 23.5956 26.8463 23.3716C26.1368 22.667 25.9662 21.6317 26.3298 20.7653L22.7828 17.2377L13.4169 26.551C12.6299 27.334 12.6299 28.6029 13.4169 29.3853L27.0764 42.9682C27.8628 43.7506 29.1384 43.7506 29.9258 42.9682L43.5214 29.4484C44.3082 28.6657 44.3082 27.3961 43.5214 26.6138" fill="#DE4C36"/>
</svg>
