<svg width="56" height="56" viewBox="0 0 56 56" fill="none" xmlns="http://www.w3.org/2000/svg">
<path d="M12.7403 23.3437C12.7403 23.3437 11.9826 22.7975 12.8919 22.0681L15.0104 20.1738C15.0104 20.1738 15.6166 19.536 16.2576 20.0917L35.8075 34.8931V41.9907C35.8075 41.9907 35.798 43.1052 34.3678 42.9821L12.7403 23.3437Z" fill="#2489CA"/>
<path d="M17.7794 27.9187L12.7404 32.4999C12.7404 32.4999 12.2226 32.8851 12.7404 33.5734L15.0799 35.7014C15.0799 35.7014 15.6356 36.2981 16.4565 35.6193L21.7987 31.5685L17.7794 27.9187Z" fill="#1070B3"/>
<path d="M26.6261 27.9565L35.8675 20.9L35.8075 13.8402C35.8075 13.8402 35.4129 12.2995 34.0963 13.1014L21.7986 24.2941L26.6261 27.9565Z" fill="#0877B9"/>
<path d="M34.3677 42.9916C34.9045 43.5409 35.5549 43.361 35.5549 43.361L42.7566 39.8122C43.6786 39.1839 43.5491 38.404 43.5491 38.404V17.2122C43.5491 16.2808 42.5956 15.9588 42.5956 15.9588L36.3537 12.9499C34.9897 12.1069 34.0962 13.1014 34.0962 13.1014C34.0962 13.1014 35.2454 12.2742 35.8074 13.8402V41.8613C35.8074 42.0539 35.7664 42.2433 35.6843 42.4138C35.5201 42.7453 35.1634 43.0547 34.3077 42.9253L34.3677 42.9916Z" fill="#3C99D4"/>
</svg>
