<svg width="57" height="56" viewBox="0 0 57 56" fill="none" xmlns="http://www.w3.org/2000/svg">
<path fill-rule="evenodd" clip-rule="evenodd" d="M28.1564 35.8831C36.7955 35.8831 43.7988 32.3536 43.7988 28C43.7988 23.6464 36.7955 20.1168 28.1564 20.1168C19.5174 20.1168 12.5139 23.6464 12.5139 28C12.5139 32.3536 19.5174 35.8831 28.1564 35.8831Z" fill="#6E81B6"/>
<path fill-rule="evenodd" clip-rule="evenodd" d="M31.3264 30.5479L32.1023 26.5767C32.2775 25.6804 32.1318 25.0119 31.6697 24.5895C31.222 24.1807 30.462 23.9819 29.3464 23.9819H28.0026L28.387 22.0143C28.3942 21.9777 28.3932 21.94 28.384 21.9038C28.3748 21.8676 28.3576 21.8339 28.3338 21.8051C28.3099 21.7763 28.2799 21.7531 28.246 21.7372C28.2121 21.7213 28.175 21.713 28.1375 21.713H26.2829C26.1611 21.713 26.0565 21.799 26.0332 21.9179L25.2091 26.1338C25.1342 25.6594 24.9495 25.2516 24.6541 24.9151C24.1101 24.2958 23.2496 23.9819 22.0964 23.9819H18.5017C18.3799 23.9819 18.2753 24.0678 18.2521 24.1865L16.5843 32.7203C16.5697 32.7946 16.5892 32.871 16.6377 32.9293C16.6859 32.9878 16.7578 33.0215 16.834 33.0215H18.7032C18.825 33.0215 18.9296 32.9355 18.9529 32.8164L19.3563 30.7524H20.7477C21.4779 30.7524 22.0915 30.6738 22.5704 30.5188C23.0601 30.3604 23.5109 30.0918 23.9081 29.722C24.2291 29.4287 24.4943 29.1003 24.6984 28.7461L24.3653 30.4511C24.3507 30.5254 24.3702 30.6021 24.4186 30.66C24.4668 30.7185 24.5389 30.7522 24.6149 30.7522H26.4696C26.5914 30.7522 26.696 30.6662 26.7192 30.5476L27.6346 25.8633H28.9072C29.4495 25.8633 29.6083 25.9707 29.6517 26.0168C29.6908 26.0589 29.7722 26.2073 29.6808 26.6751L28.9431 30.4509C28.936 30.4875 28.9372 30.5252 28.9464 30.5613C28.9557 30.5974 28.9729 30.6311 28.9967 30.6598C29.0206 30.6886 29.0505 30.7118 29.0844 30.7277C29.1183 30.7436 29.1553 30.7519 29.1928 30.752H31.0769C31.1359 30.7521 31.193 30.7318 31.2386 30.6946C31.2841 30.6573 31.3152 30.6055 31.3264 30.5479ZM22.728 27.2667C22.6114 27.862 22.392 28.2866 22.0754 28.5287C21.7538 28.7753 21.2395 28.9002 20.5467 28.9002H19.7182L20.3172 25.8345H21.3884C22.1753 25.8345 22.4923 26.0017 22.6196 26.1418C22.7961 26.3363 22.8335 26.7255 22.728 27.2667ZM39.1386 24.9151C38.5948 24.2958 37.7343 23.9819 36.581 23.9819H32.9864C32.8644 23.9819 32.76 24.0678 32.7367 24.1865L31.0692 32.7203C31.0544 32.7946 31.0739 32.871 31.1223 32.9293C31.1707 32.9876 31.2428 33.0215 31.3185 33.0215H33.1879C33.3099 33.0215 33.4143 32.9355 33.4375 32.8164L33.841 30.7524H35.2326C35.9629 30.7524 36.5759 30.6738 37.0551 30.5188C37.545 30.3604 37.9957 30.0918 38.3927 29.722C38.7241 29.4193 38.9967 29.079 39.2033 28.7117C39.4098 28.3443 39.5579 27.9346 39.6444 27.4937C39.8568 26.4063 39.6867 25.5388 39.1386 24.9151ZM37.3187 27.2667C37.202 27.862 36.9826 28.2866 36.6664 28.5287C36.3446 28.7753 35.8303 28.9002 35.1376 28.9002H34.309L34.9078 25.8345H35.9792C36.766 25.8345 37.0831 26.0017 37.2105 26.1418C37.3866 26.3363 37.4243 26.7255 37.3187 27.2667Z" fill="white"/>
<path fill-rule="evenodd" clip-rule="evenodd" d="M21.3354 25.5815C22.0454 25.5815 22.5189 25.7119 22.7555 25.9726C22.9919 26.2333 23.0483 26.681 22.9246 27.3151C22.7952 27.9755 22.5463 28.4469 22.1775 28.7294C21.8086 29.0119 21.2472 29.153 20.4936 29.153H19.3564L20.0544 25.5815H21.3354ZM16.7808 32.7685H18.65L19.0935 30.4998H20.6947C21.4012 30.4998 21.9824 30.4259 22.4387 30.2782C22.8949 30.1306 23.3097 29.8832 23.6829 29.5358C23.9962 29.2497 24.2496 28.9337 24.4437 28.5883C24.6376 28.243 24.7753 27.8621 24.8568 27.4454C25.0547 26.4338 24.9054 25.6459 24.4095 25.0816C23.9137 24.5171 23.1247 24.2349 22.0434 24.2349H18.4487L16.7808 32.7685ZM26.2297 21.9661H28.0843L27.6409 24.2349H29.2934C30.3326 24.2349 31.05 24.4151 31.4446 24.7757C31.8392 25.1363 31.9574 25.7207 31.7996 26.5286L31.0237 30.4998H29.1396L29.8773 26.7239C29.9611 26.2943 29.9304 26.0014 29.7846 25.8451C29.6388 25.689 29.3284 25.6107 28.854 25.6107H27.3718L26.4164 30.4998H24.5617L26.2297 21.9661ZM35.9262 25.5815C36.6362 25.5815 37.1095 25.7119 37.3463 25.9726C37.5828 26.2333 37.6389 26.681 37.5152 27.3151C37.3862 27.9755 37.1373 28.4469 36.7683 28.7294C36.3996 29.0119 35.838 29.153 35.0848 29.153H33.9476L34.6454 25.5815H35.9262ZM31.3712 32.7685H33.2406L33.684 30.4998H35.2851C35.9918 30.4998 36.5731 30.4259 37.0293 30.2782C37.4855 30.1306 37.9004 29.8832 38.2735 29.5358C38.5868 29.2497 38.8402 28.9337 39.0341 28.5883C39.228 28.243 39.3659 27.8621 39.4476 27.4454C39.6453 26.4338 39.496 25.6459 39.0003 25.0816C38.5041 24.5171 37.7154 24.2349 36.634 24.2349H33.0393L31.3712 32.7685Z" fill="black"/>
</svg>
