<svg width="56" height="56" viewBox="0 0 56 56" fill="none" xmlns="http://www.w3.org/2000/svg">
<path d="M39.2334 29.7466C38.1481 29.7523 37.2048 30.0137 36.4149 30.4001C36.1251 29.8261 35.8353 29.3147 35.7841 28.9397C35.7273 28.5021 35.6591 28.235 35.7273 27.7122C35.7955 27.1894 36.1023 26.445 36.0967 26.3882C36.091 26.3314 36.0285 26.0643 35.4034 26.0586C34.7783 26.0529 34.2385 26.1779 34.176 26.3427C34.1134 26.5075 33.9941 26.8826 33.9146 27.269C33.8066 27.8372 32.6644 29.8659 32.0109 30.9286C31.8006 30.5137 31.6188 30.15 31.579 29.8602C31.5222 29.4227 31.454 29.1556 31.5222 28.6328C31.5904 28.11 31.8972 27.3656 31.8916 27.3088C31.8859 27.2519 31.8234 26.9849 31.1983 26.9792C30.5732 26.9735 30.0334 27.0985 29.9709 27.2633C29.9083 27.4281 29.8402 27.8145 29.7095 28.1896C29.5788 28.5646 28.0615 31.9514 27.6637 32.8265C27.4592 33.2755 27.283 33.6335 27.158 33.8778C27.158 33.8778 27.1523 33.8949 27.1353 33.9233C27.0273 34.1335 26.9648 34.2472 26.9648 34.2472C26.9648 34.2472 26.9648 34.2472 26.9648 34.2529C26.8795 34.4063 26.7886 34.5483 26.7432 34.5483C26.7091 34.5483 26.6466 34.1392 26.7545 33.5823C26.9818 32.406 27.5217 30.5762 27.516 30.5137C27.516 30.4796 27.6183 30.1614 27.1637 29.9966C26.7204 29.8318 26.5613 30.1046 26.5215 30.1046C26.4818 30.1046 26.4533 30.2012 26.4533 30.2012C26.4533 30.2012 26.9477 28.1441 25.51 28.1441C24.6122 28.1441 23.3734 29.1272 22.7597 30.0137C22.3733 30.2239 21.5493 30.6728 20.6685 31.1559C20.3332 31.3434 19.9866 31.5309 19.6627 31.7071C19.64 31.6843 19.6172 31.6559 19.5945 31.6332C17.8556 29.775 14.6393 28.4623 14.7757 25.9677C14.8268 25.0585 15.1394 22.6718 20.9526 19.7737C25.7373 17.4154 29.5447 18.0689 30.2038 19.518C31.1471 21.5864 28.1638 25.4278 23.22 25.9847C21.3334 26.195 20.3446 25.4676 20.0946 25.1948C19.8332 24.9107 19.7934 24.8937 19.6968 24.9505C19.5377 25.0357 19.64 25.2915 19.6968 25.4392C19.8445 25.8256 20.4526 26.5075 21.4811 26.8428C22.3903 27.1383 24.6008 27.3031 27.2773 26.2689C30.272 25.1096 32.6132 21.8876 31.9257 19.1884C31.2381 16.4494 26.692 15.5459 22.3903 17.0745C19.8332 17.9837 17.0601 19.4157 15.0655 21.2796C12.6959 23.4958 12.3208 25.4221 12.4742 26.2291C13.0254 29.0931 16.9748 30.957 18.5546 32.3378C18.475 32.3833 18.4012 32.4231 18.3386 32.4572C17.5488 32.8493 14.537 34.4233 13.7869 36.0883C12.9345 37.9749 13.9233 39.3274 14.5768 39.5092C16.6055 40.0718 18.691 39.0603 19.8104 37.3896C20.9299 35.719 20.7935 33.5482 20.2764 32.5538C20.2707 32.5424 20.265 32.531 20.2537 32.5197C20.4582 32.4003 20.6685 32.2753 20.8731 32.156C21.2765 31.9173 21.6743 31.6957 22.0153 31.5139C21.8221 32.0423 21.68 32.6731 21.6118 33.5823C21.5266 34.6506 21.9641 36.0372 22.5381 36.5827C22.7938 36.8214 23.095 36.8271 23.2882 36.8271C23.9587 36.8271 24.2599 36.2702 24.5951 35.611C25.0043 34.8041 25.3737 33.8664 25.3737 33.8664C25.3737 33.8664 24.9134 36.4009 26.1635 36.4009C26.6181 36.4009 27.0784 35.8099 27.283 35.5087C27.283 35.5144 27.283 35.5144 27.283 35.5144C27.283 35.5144 27.2944 35.4973 27.3171 35.4576C27.3626 35.3837 27.391 35.3382 27.391 35.3382C27.391 35.3382 27.391 35.3325 27.391 35.3269C27.5728 35.0086 27.982 34.2869 28.59 33.0879C29.3742 31.5423 30.13 29.6102 30.13 29.6102C30.13 29.6102 30.1982 30.0819 30.4311 30.866C30.5675 31.3263 30.8517 31.8321 31.079 32.3208C30.8971 32.5765 30.7835 32.7186 30.7835 32.7186C30.7835 32.7186 30.7835 32.7186 30.7891 32.7242C30.6414 32.9175 30.4823 33.1277 30.3061 33.3323C29.6867 34.071 28.948 34.9177 28.8457 35.1621C28.7264 35.4519 28.7548 35.6621 28.9821 35.8326C29.1469 35.9576 29.4424 35.9747 29.7436 35.9576C30.3004 35.9178 30.6925 35.7815 30.8857 35.6962C31.1869 35.5883 31.5392 35.4235 31.8688 35.1791C32.4769 34.7302 32.8462 34.0881 32.8121 33.2414C32.7951 32.7754 32.6417 32.3094 32.4541 31.8719C32.511 31.7923 32.5621 31.7127 32.6189 31.6332C33.5793 30.2296 34.3237 28.6896 34.3237 28.6896C34.3237 28.6896 34.3919 29.1613 34.6249 29.9455C34.7385 30.3433 34.9715 30.7751 35.1761 31.1956C34.2726 31.9287 33.7157 32.7811 33.5168 33.338C33.1588 34.3722 33.4372 34.8382 33.9657 34.9461C34.2044 34.9973 34.5453 34.8836 34.7954 34.7757C35.1136 34.6734 35.4886 34.4972 35.8466 34.2358C36.4547 33.7869 37.04 33.1618 37.0059 32.3151C36.9888 31.9287 36.8865 31.548 36.7445 31.1786C37.5116 30.8604 38.5004 30.6842 39.7619 30.832C42.4668 31.1502 43.001 32.8379 42.8987 33.5482C42.7964 34.2585 42.2281 34.645 42.0406 34.7643C41.8531 34.8836 41.7906 34.9234 41.8076 35.0086C41.8304 35.1337 41.9213 35.128 42.0804 35.1052C42.302 35.0655 43.501 34.5313 43.5522 33.2243C43.6374 31.5536 42.0463 29.7295 39.2334 29.7466ZM18.3671 36.7816C17.4692 37.759 16.219 38.1284 15.6792 37.8158C15.0996 37.4806 15.3269 36.0372 16.4293 35.003C17.0998 34.3722 17.9636 33.7869 18.5375 33.4289C18.6682 33.3493 18.8614 33.2357 19.0944 33.0936C19.1342 33.0709 19.1569 33.0595 19.1569 33.0595C19.2024 33.0311 19.2479 33.0027 19.2933 32.9743C19.6968 34.4517 19.3104 35.7531 18.3671 36.7816ZM24.902 32.3378C24.5895 33.0993 23.936 35.0484 23.5382 34.9404C23.1972 34.8495 22.987 33.3721 23.47 31.9116C23.7144 31.1786 24.2315 30.3035 24.5326 29.9625C25.0213 29.417 25.5612 29.2352 25.6919 29.4568C25.8567 29.7466 25.0952 31.8605 24.902 32.3378ZM30.2948 34.9177C30.1641 34.9859 30.039 35.0314 29.9822 34.9973C29.9424 34.9745 30.039 34.8836 30.039 34.8836C30.039 34.8836 30.7153 34.1562 30.9824 33.8267C31.1358 33.6335 31.3176 33.4062 31.5108 33.1504C31.5108 33.1732 31.5108 33.2016 31.5108 33.2243C31.5108 34.0937 30.6698 34.679 30.2948 34.9177ZM34.4544 33.9687C34.3578 33.9005 34.3748 33.6732 34.6987 32.9629C34.8238 32.6845 35.1193 32.2185 35.625 31.7696C35.6818 31.9514 35.7216 32.1276 35.7159 32.2924C35.7102 33.3891 34.9261 33.7983 34.4544 33.9687Z" fill="#CD6799"/>
</svg>
