<svg width="57" height="56" viewBox="0 0 57 56" fill="none" xmlns="http://www.w3.org/2000/svg">
<path d="M41.1622 18.4924C39.2711 16.0572 36.6964 14.2344 33.7635 13.2546C30.8307 12.2747 27.6715 12.1817 24.6855 12.9874C21.6995 13.7931 19.0208 15.4613 16.9883 17.781C14.9558 20.1008 13.6606 22.9678 13.2667 26.0195C12.8728 29.0712 13.3978 32.1706 14.7753 34.9256C16.1527 37.6806 18.3209 39.9675 21.0054 41.497C23.69 43.0266 26.7703 43.7301 29.857 43.5186C32.9436 43.3071 35.8978 42.1901 38.3461 40.3089C45.1798 35.057 46.441 25.2906 41.1617 18.4924H41.1622Z" fill="#FF6C37"/>
<path d="M34.0577 22.356L27.462 28.9671L25.5981 27.0615C32.0897 20.606 32.7413 21.1893 34.0581 22.356H34.0577Z" fill="white"/>
<path d="M27.4619 29.1479C27.4035 29.1465 27.3477 29.1234 27.3055 29.0832L25.4284 27.2166C25.3862 27.1731 25.3625 27.115 25.3625 27.0545C25.3625 26.994 25.3862 26.9359 25.4284 26.8924C31.8286 20.5278 32.7021 20.8257 34.214 22.1868C34.2394 22.207 34.2596 22.2327 34.2732 22.262C34.2868 22.2913 34.2933 22.3233 34.2923 22.3555C34.302 22.4187 34.2776 22.4834 34.2272 22.5242L27.6316 29.0837C27.5853 29.1259 27.5247 29.149 27.4619 29.1484V29.1479ZM25.9236 27.061L27.4619 28.5908L33.7189 22.3686C33.5028 22.0994 33.1946 21.9188 32.853 21.8614C32.5115 21.804 32.1607 21.8739 31.8677 22.0575C30.7336 22.5631 28.9088 24.1055 25.9236 27.061Z" fill="#FF6C37"/>
<path d="M29.3521 30.7948L27.5532 28.967L34.1489 22.4853C35.9219 24.2095 33.2886 27.0872 29.3521 30.7943V30.7948Z" fill="white"/>
<path d="M29.3522 31.0281C29.2945 31.0236 29.2398 31.0009 29.1958 30.9635L27.3578 29.1746C27.3303 29.1081 27.3303 29.0335 27.3578 28.967C27.3383 28.9125 27.3383 28.8529 27.3578 28.7983L33.9535 22.2393C33.9994 22.1965 34.06 22.1726 34.1229 22.1726C34.1858 22.1726 34.2464 22.1965 34.2923 22.2393C34.5059 22.4348 34.6746 22.6738 34.7871 22.9399C34.8995 23.2061 34.953 23.4932 34.9439 23.7817C34.9439 25.5317 32.9363 27.7352 29.5214 30.9503C29.4757 30.9952 29.4157 31.0228 29.3517 31.0281H29.3522ZM27.8921 28.967L29.3649 30.4312C31.9718 27.9812 34.4619 25.4535 34.4746 23.7424C34.4888 23.3796 34.3682 23.0244 34.1359 22.7444L27.8921 28.967Z" fill="#FF6C37"/>
<path d="M25.6499 27.1004L26.9536 28.3969C26.9619 28.4042 26.9685 28.4131 26.9731 28.4232C26.9777 28.4332 26.98 28.4442 26.98 28.4552C26.98 28.4662 26.9777 28.4771 26.9731 28.4872C26.9685 28.4972 26.9619 28.5062 26.9536 28.5135L24.203 29.0968C24.1474 29.1088 24.0895 29.1023 24.038 29.0785C23.9865 29.0546 23.9443 29.0147 23.9177 28.9648C23.8911 28.9148 23.8817 28.8577 23.8908 28.8019C23.9 28.7462 23.9272 28.6949 23.9683 28.6559L25.5717 27.0746C25.5717 27.0746 25.624 27.0746 25.6499 27.1004Z" fill="white"/>
<path d="M24.1378 29.3559C24.0509 29.3548 23.9657 29.3316 23.8904 29.2884C23.8151 29.2453 23.7522 29.1837 23.7076 29.1094C23.6575 29.0154 23.6393 28.9078 23.6558 28.8027C23.6723 28.6975 23.7225 28.6005 23.7991 28.5261L25.3892 26.9317C25.4465 26.8807 25.5208 26.8525 25.5977 26.8525C25.6746 26.8525 25.7488 26.8807 25.8061 26.9317L27.1098 28.2281C27.1871 28.3011 27.2174 28.4114 27.188 28.5135C27.1587 28.6156 27.0727 28.6967 26.9666 28.721L24.216 29.3044L24.1378 29.3559ZM25.5979 27.3857L24.1251 28.8504L26.5628 28.3317L25.5979 27.3857Z" fill="#FF6C37"/>
<path d="M37.5645 18.7131C36.6211 17.808 35.1389 17.7701 34.1495 18.6241C33.1601 19.4782 32.991 20.9443 33.7614 21.9992C34.5318 23.054 35.9841 23.3496 37.1084 22.6797L35.3354 20.9166L37.5645 18.7131Z" fill="white"/>
<path d="M35.8048 23.2757C35.2627 23.2688 34.7347 23.1034 34.2865 22.8002C33.8384 22.497 33.4898 22.0693 33.2844 21.5705C33.079 21.072 33.0252 20.5246 33.1294 19.996C33.2337 19.4674 33.4915 18.9809 33.871 18.5965C34.3928 18.087 35.0949 17.8016 35.8263 17.8016C36.5576 17.8016 37.2597 18.087 37.7816 18.5965C37.8314 18.6383 37.8598 18.7 37.8598 18.7651C37.8597 18.7972 37.8526 18.8288 37.8391 18.8579C37.8256 18.887 37.806 18.9129 37.7816 18.9338L35.6698 20.9171L37.2732 22.4858C37.2992 22.5105 37.3187 22.5411 37.33 22.575C37.3413 22.6089 37.3442 22.645 37.3382 22.6802C37.3343 22.7142 37.323 22.747 37.305 22.7761C37.287 22.8053 37.2628 22.8301 37.2341 22.8489C36.8033 23.1167 36.3082 23.2644 35.8004 23.2767L35.8048 23.2757ZM35.8048 18.246C34.876 18.2508 34.045 18.8065 33.6964 19.6557C33.3479 20.5049 33.5376 21.4825 34.1887 22.1348C34.5126 22.4588 34.9272 22.6779 35.3785 22.7635C35.8297 22.8491 36.2963 22.7972 36.7174 22.6146L35.1791 21.0848C35.1546 21.0654 35.1349 21.0407 35.1213 21.0127C35.1077 20.9846 35.1007 20.9539 35.1007 20.9227C35.1007 20.8916 35.1077 20.8608 35.1213 20.8328C35.1349 20.8047 35.1546 20.78 35.1791 20.7606L37.2126 18.7253C36.8083 18.4172 36.314 18.2487 35.8048 18.2455V18.246Z" fill="#FF6C37"/>
<path d="M37.6035 18.752L35.3745 20.9555L37.1474 22.7186C37.3259 22.6167 37.492 22.4949 37.6426 22.3555C38.1073 21.867 38.363 21.2182 38.3557 20.5458C38.3484 19.8735 38.0787 19.2303 37.6035 18.752Z" fill="white"/>
<path d="M37.1079 22.9131C37.0786 22.9146 37.0493 22.9096 37.0222 22.8985C36.9952 22.8873 36.971 22.8702 36.9514 22.8484L35.1785 21.0853C35.154 21.0658 35.1343 21.0412 35.1207 21.0131C35.1071 20.9851 35.1001 20.9543 35.1001 20.9232C35.1001 20.892 35.1071 20.8613 35.1207 20.8332C35.1343 20.8052 35.154 20.7805 35.1785 20.7611L37.3943 18.5964C37.4157 18.5643 37.4448 18.538 37.4789 18.5198C37.513 18.5016 37.5511 18.4921 37.5898 18.4921C37.6286 18.4921 37.6667 18.5016 37.7008 18.5198C37.7349 18.538 37.764 18.5643 37.7854 18.5964C38.0455 18.8499 38.2522 19.1524 38.3932 19.4863C38.5343 19.8202 38.607 20.1787 38.607 20.5408C38.607 20.903 38.5343 21.2615 38.3932 21.5954C38.2522 21.9293 38.0455 22.2318 37.7854 22.4853C37.6319 22.6471 37.4563 22.7867 37.2638 22.8999C37.2153 22.9242 37.1593 22.9289 37.1074 22.9131H37.1079ZM35.6741 20.9171L37.147 22.3817C37.2483 22.3111 37.3442 22.2331 37.4339 22.1484C37.8669 21.719 38.1107 21.1363 38.1119 20.5282C38.1129 19.984 37.9134 19.4583 37.5512 19.0504L35.6741 20.9171Z" fill="#FF6C37"/>
<path d="M34.3315 22.6282C34.1549 22.4634 33.9218 22.3716 33.6796 22.3716C33.4374 22.3716 33.2043 22.4634 33.0278 22.6282L27.1233 28.4868L28.1009 29.4722L34.3447 24.0277C34.4399 23.937 34.5154 23.8278 34.5666 23.7069C34.6178 23.5861 34.6436 23.4561 34.6423 23.3249C34.6411 23.1938 34.6129 23.0642 34.5594 22.9444C34.506 22.8245 34.4284 22.7167 34.3315 22.6277V22.6282Z" fill="white"/>
<path d="M28.0486 29.7059C27.9902 29.7045 27.9344 29.6815 27.8922 29.6413L26.9013 28.6559C26.8591 28.6124 26.8354 28.5543 26.8354 28.4938C26.8354 28.4333 26.8591 28.3752 26.9013 28.3317L32.8063 22.4853C32.9764 22.3164 33.1936 22.2021 33.4297 22.1575C33.6659 22.1128 33.9101 22.1396 34.1307 22.2346C34.3513 22.3296 34.5381 22.4883 34.6669 22.6902C34.7957 22.892 34.8605 23.1277 34.853 23.3666C34.8462 23.5288 34.807 23.688 34.7376 23.8349C34.6682 23.9818 34.57 24.1135 34.4488 24.2222L28.205 29.6666C28.1596 29.6985 28.1038 29.7124 28.0486 29.7054V29.7059ZM27.3579 28.4868L28.0095 29.1479L34.1359 23.8459C34.2874 23.7147 34.3779 23.527 34.3837 23.3272C34.3896 23.1274 34.3104 22.932 34.1623 22.7959C34.0255 22.6605 33.8404 22.5844 33.6473 22.5844C33.4543 22.5844 33.2691 22.6605 33.1324 22.7959L27.3579 28.4868Z" fill="#FF6C37"/>
<path d="M22.5477 35.163C22.531 35.1855 22.522 35.2128 22.522 35.2407C22.522 35.2687 22.531 35.296 22.5477 35.3185L22.8082 36.4463C22.8187 36.5127 22.8088 36.5806 22.7798 36.6413C22.7509 36.702 22.7042 36.7526 22.6459 36.7866C22.5879 36.8204 22.5205 36.8349 22.4536 36.8282C22.3866 36.8215 22.3236 36.7938 22.2735 36.7491L20.4878 35.038L26.054 29.459H27.9834L29.2871 30.7554C27.2534 32.5236 24.9859 34.0066 22.5477 35.163Z" fill="white"/>
<path d="M22.4306 37.0685C22.2829 37.0656 22.1373 37.0053 22.0395 36.8998L20.332 35.2018C20.3076 35.1824 20.2878 35.1577 20.2743 35.1296C20.2607 35.1016 20.2537 35.0708 20.2537 35.0397C20.2537 35.0086 20.2607 34.9778 20.2743 34.9498C20.2878 34.9217 20.3076 34.897 20.332 34.8776L25.9369 29.2908C25.9683 29.2576 26.0093 29.235 26.0542 29.2261H27.9963C28.0469 29.2083 28.1021 29.2083 28.1527 29.2261L29.4564 30.5226C29.4812 30.5453 29.5001 30.5737 29.5114 30.6052C29.5227 30.6368 29.5261 30.6707 29.5214 30.7039C29.5223 30.7361 29.5158 30.7681 29.5022 30.7973C29.4886 30.8266 29.4684 30.8523 29.4432 30.8726L29.3391 30.9635C27.2972 32.6562 25.0508 34.0889 22.652 35.2281L22.8998 36.2781C22.919 36.3591 22.9197 36.4433 22.902 36.5246C22.8842 36.6059 22.8485 36.6823 22.7973 36.7481C22.7461 36.8139 22.6807 36.8675 22.606 36.905C22.5314 36.9426 22.4492 36.963 22.3655 36.9649L22.4306 37.0685ZM20.8404 35.0331L22.3783 36.5756C22.3926 36.5883 22.4111 36.5953 22.4303 36.5953C22.4495 36.5953 22.468 36.5883 22.4824 36.5756C22.492 36.5623 22.4971 36.5464 22.4971 36.5301C22.4971 36.5138 22.492 36.4979 22.4824 36.4847L22.2218 35.3569C22.2013 35.276 22.2095 35.1904 22.2452 35.1149C22.2808 35.0393 22.3417 34.9783 22.4174 34.9422C24.7517 33.8182 26.9402 32.4166 28.9348 30.768L27.8658 29.7049H26.1192L20.8404 35.0331Z" fill="#FF6C37"/>
<path d="M19.1455 36.3685L20.4492 35.072L22.4568 37.0685L19.2633 36.8482C19.2085 36.844 19.1564 36.8226 19.1146 36.7871C19.0727 36.7517 19.0431 36.704 19.0301 36.6509C19.0171 36.5977 19.0213 36.5418 19.0421 36.4912C19.0629 36.4406 19.0993 36.3978 19.146 36.3689L19.1455 36.3685Z" fill="white"/>
<path d="M22.4954 37.2629L19.3147 37.0427C19.126 37.0252 18.9637 36.8969 18.8972 36.7253C18.8307 36.5537 18.8713 36.35 19.0018 36.2129L20.3055 34.9165C20.3493 34.8744 20.4077 34.851 20.4685 34.851C20.5294 34.851 20.5878 34.8744 20.6316 34.9165L22.6259 36.8998C22.6536 36.9374 22.6684 36.9828 22.6684 37.0293C22.6684 37.0759 22.6536 37.1213 22.6259 37.1589C22.5958 37.2074 22.5497 37.244 22.4954 37.2624V37.2629ZM19.3147 36.5372L21.9216 36.7058L20.4878 35.3705L19.3147 36.5372Z" fill="#FF6C37"/>
<path d="M28.1657 29.6155L25.5325 30.0175L27.0576 28.514L28.1657 29.6155Z" fill="white"/>
<path d="M25.5325 30.263C25.4887 30.2641 25.4456 30.2524 25.4084 30.2294C25.3713 30.2063 25.3419 30.1728 25.3237 30.1332C25.296 30.0956 25.281 30.0503 25.281 30.0037C25.281 29.957 25.296 29.9117 25.3237 29.8741L26.8356 28.3574C26.8815 28.3146 26.9421 28.2907 27.005 28.2907C27.068 28.2907 27.1285 28.3146 27.1744 28.3574L28.283 29.459C28.3052 29.4939 28.3169 29.5343 28.3169 29.5756C28.3169 29.6169 28.3052 29.6574 28.283 29.6923C28.2722 29.7349 28.2492 29.7734 28.2168 29.8033C28.1845 29.8333 28.1442 29.8533 28.1007 29.861L25.4938 30.263H25.5325ZM27.0576 28.8499L26.2104 29.6923L27.6705 29.4721L27.0576 28.8499Z" fill="#FF6C37"/>
<path d="M28.1658 29.6145L26.3278 29.8479C26.2786 29.859 26.2272 29.854 26.181 29.8337C26.1349 29.8135 26.0966 29.7789 26.0717 29.7353C26.0469 29.6916 26.0368 29.6412 26.0431 29.5914C26.0493 29.5417 26.0715 29.4952 26.1064 29.459L27.0581 28.5125L28.1658 29.6145Z" fill="white"/>
<path d="M26.2755 30.0948C26.1903 30.094 26.1068 30.0708 26.0336 30.0275C25.9604 29.9842 25.9 29.9224 25.8585 29.8483C25.8088 29.7596 25.7895 29.6571 25.8036 29.5565C25.8177 29.4559 25.8644 29.3626 25.9367 29.2908L26.8885 28.3443C26.9344 28.3015 26.9949 28.2776 27.0579 28.2776C27.1208 28.2776 27.1814 28.3015 27.2272 28.3443L28.3354 29.4463C28.3684 29.4774 28.3915 29.5173 28.4022 29.5612C28.4128 29.6051 28.4103 29.6511 28.3952 29.6936C28.38 29.7362 28.3528 29.7734 28.3167 29.8009C28.2807 29.8284 28.2374 29.8448 28.1922 29.8483L26.3674 30.0817L26.2755 30.0948ZM26.2755 29.615L27.6574 29.4463L27.0449 28.8372L26.2628 29.615H26.2755ZM37.6162 20.2428C37.5916 20.2019 37.5528 20.1714 37.5071 20.1571C37.4615 20.1427 37.4121 20.1456 37.3683 20.1651C37.3468 20.1759 37.3276 20.191 37.312 20.2094C37.2964 20.2277 37.2846 20.249 37.2774 20.272C37.2629 20.3184 37.2675 20.3685 37.2901 20.4115C37.3815 20.6026 37.3561 20.8286 37.2251 20.9949C37.2089 21.0109 37.1961 21.0301 37.1877 21.0512C37.1793 21.0724 37.1754 21.0951 37.1762 21.1178C37.1767 21.1634 37.1941 21.2072 37.2251 21.2408C37.2586 21.254 37.2958 21.254 37.3292 21.2408C37.3596 21.2484 37.3915 21.2476 37.4214 21.2384C37.4513 21.2292 37.4781 21.2121 37.4989 21.1888C37.6062 21.0581 37.6742 20.8999 37.6949 20.7324C37.7157 20.565 37.6884 20.3951 37.6162 20.2424V20.2428Z" fill="#FF6C37"/>
</svg>
