<svg width="57" height="56" viewBox="0 0 57 56" fill="none" xmlns="http://www.w3.org/2000/svg">
<path d="M28.1564 12.8284C19.5184 12.8284 12.5139 19.7928 12.5139 28.384C12.5139 35.257 16.996 41.0879 23.2113 43.1448C23.993 43.2888 24.2801 42.8074 24.2801 42.3965C24.2801 42.0256 24.2655 40.8001 24.2588 39.5003C19.907 40.4413 18.9887 37.665 18.9887 37.665C18.2771 35.8669 17.2519 35.3889 17.2519 35.3889C15.8327 34.4234 17.3589 34.4432 17.3589 34.4432C18.9297 34.553 19.7568 36.0463 19.7568 36.0463C21.1519 38.4244 23.4161 37.7368 24.3088 37.3395C24.4491 36.3339 24.8546 35.6478 25.3019 35.2594C21.8275 34.8659 18.1751 33.5321 18.1751 27.5716C18.1751 25.8734 18.7861 24.4857 19.7868 23.3963C19.6244 23.0045 19.089 21.4224 19.9384 19.2797C19.9384 19.2797 21.2519 18.8616 24.2412 20.8742C25.4888 20.5294 26.8271 20.3567 28.1564 20.3508C29.4858 20.3567 30.825 20.5294 32.0751 20.8742C35.0608 18.8616 36.3725 19.2797 36.3725 19.2797C37.224 21.4224 36.6883 23.0045 36.5259 23.3963C37.5288 24.4857 38.1357 25.8733 38.1357 27.5716C38.1357 33.5462 34.4764 34.8619 30.9932 35.2469C31.5542 35.7297 32.0542 36.6764 32.0542 38.1276C32.0542 40.2089 32.036 41.8841 32.036 42.3965C32.036 42.8104 32.3175 43.2955 33.1106 43.1428C39.3224 41.0835 43.7988 35.2547 43.7988 28.384C43.7988 19.7928 36.7953 12.8284 28.1564 12.8284Z" fill="#161614"/>
<path d="M18.3726 34.9878C18.3382 35.065 18.2158 35.0882 18.1045 35.0352C17.991 34.9845 17.9272 34.8791 17.964 34.8015C17.9978 34.7219 18.1202 34.6997 18.2335 34.7532C18.3472 34.8038 18.412 34.9102 18.3726 34.9878ZM19.142 35.6705C19.0674 35.7393 18.9216 35.7073 18.8226 35.5986C18.7203 35.4902 18.7011 35.3452 18.7768 35.2753C18.8537 35.2066 18.9952 35.2387 19.0978 35.3473C19.2001 35.457 19.2199 35.6011 19.1419 35.6706L19.142 35.6705ZM19.6699 36.544C19.574 36.6103 19.4172 36.5482 19.3204 36.4098C19.2246 36.2716 19.2246 36.1057 19.3225 36.0392C19.4197 35.9727 19.574 36.0325 19.6721 36.1697C19.7678 36.3104 19.7678 36.4763 19.6698 36.5441L19.6699 36.544ZM20.5626 37.5558C20.4768 37.6497 20.2943 37.6246 20.1605 37.4962C20.0239 37.3708 19.9857 37.1928 20.0717 37.0987C20.1585 37.0046 20.3421 37.031 20.4768 37.1583C20.6126 37.2835 20.6541 37.4628 20.5627 37.5558H20.5626ZM21.7163 37.8974C21.6786 38.0191 21.5027 38.0745 21.3255 38.0228C21.1486 37.9695 21.0328 37.8267 21.0685 37.7036C21.1053 37.581 21.282 37.5233 21.4605 37.5787C21.6371 37.6318 21.7532 37.7734 21.7164 37.8974H21.7163ZM23.0295 38.0422C23.0339 38.1705 22.8836 38.2769 22.6976 38.2792C22.5105 38.2832 22.3592 38.1794 22.3573 38.0533C22.3573 37.9237 22.5041 37.8183 22.6911 37.8153C22.8771 37.8116 23.0295 37.9147 23.0295 38.0422ZM24.3193 37.993C24.3417 38.1182 24.2124 38.2468 24.0277 38.2809C23.8462 38.3139 23.6781 38.2366 23.6549 38.1126C23.6323 37.9842 23.7641 37.8558 23.9453 37.8225C24.1303 37.7905 24.2958 37.8658 24.3193 37.993Z" fill="#161614"/>
</svg>
