<svg width="56" height="56" viewBox="0 0 56 56" fill="none" xmlns="http://www.w3.org/2000/svg">
<path d="M21.9018 38.5138C21.8787 38.4739 21.858 38.4327 21.8401 38.3903C21.7159 38.1095 21.6777 37.7996 21.7302 37.498H14.3753L25.3055 18.7163L28.894 24.8757L29.9343 23.0783L26.8062 17.6977C26.6563 17.4221 26.438 17.1876 26.1714 17.0156C25.9047 16.8437 25.5982 16.7397 25.2798 16.7133C24.962 16.7274 24.6547 16.8283 24.3928 17.0045C24.1308 17.1807 23.9248 17.4251 23.7981 17.71L12.725 36.7196C12.5595 36.988 12.464 37.292 12.4471 37.6048C12.4301 37.9177 12.4922 38.2298 12.6278 38.5138C12.798 38.776 13.0401 38.9864 13.3265 39.1213C13.6129 39.2562 13.9323 39.3101 14.2484 39.277H23.523C23.2067 39.3106 22.8872 39.2569 22.6007 39.122C22.3142 38.9871 22.0722 38.7763 21.9023 38.5138H21.9018Z" fill="#00C492"/>
<path d="M43.2246 36.7192L34.1251 21.0687C33.9758 20.7902 33.7571 20.5529 33.4891 20.3787C33.2212 20.2045 32.9126 20.099 32.5919 20.0719C32.2745 20.0853 31.9674 20.1856 31.7056 20.3613C31.4438 20.5369 31.2378 20.7809 31.1112 21.0653L29.9343 23.0778L30.9814 24.8758L32.6016 22.0749L41.6039 37.4976H38.1807C38.2244 37.7525 38.1998 38.0141 38.1092 38.257C38.0902 38.3107 38.0662 38.3626 38.0378 38.4122L38.0086 38.4692C37.8227 38.7257 37.5748 38.9334 37.2871 39.0742C36.9993 39.2149 36.6805 39.2843 36.3588 39.2761H41.7137C42.0355 39.2845 42.3544 39.2153 42.6422 39.0745C42.93 38.9338 43.1778 38.7258 43.3636 38.4692C43.5103 38.1939 43.575 37.8841 43.5504 37.5748C43.5258 37.2654 43.4129 36.969 43.2246 36.7192Z" fill="#008776"/>
<path d="M38.0091 38.4696L38.0383 38.4127C38.0666 38.3631 38.0904 38.3111 38.1093 38.2574C38.1999 38.0146 38.2245 37.7529 38.1807 37.498C38.1302 37.2231 38.0291 36.9593 37.8823 36.7196L30.9882 24.8757L29.9348 23.0782L28.8877 24.8757L21.9961 36.7196C21.8624 36.9622 21.7724 37.2255 21.7302 37.498C21.6748 37.7989 21.7097 38.1089 21.8309 38.3908C21.8488 38.4331 21.8695 38.4744 21.8926 38.5142C22.063 38.7764 22.305 38.9867 22.5914 39.1215C22.8778 39.2563 23.1972 39.3102 23.5133 39.277H36.3491C36.6724 39.2863 36.993 39.2175 37.2825 39.0768C37.572 38.936 37.8215 38.7276 38.0087 38.4701L38.0091 38.4696ZM29.9343 26.6737L36.2358 37.4975H23.6358L29.9343 26.6737Z" fill="#2D4A5D"/>
</svg>
