<svg width="57" height="56" viewBox="0 0 57 56" fill="none" xmlns="http://www.w3.org/2000/svg">
<path d="M23.4403 43.5556C26.3025 43.5556 28.6255 41.2326 28.6255 38.3704V33.1852H23.4403C20.5781 33.1852 18.2551 35.5082 18.2551 38.3704C18.2551 41.2326 20.5781 43.5556 23.4403 43.5556Z" fill="#0ACF83"/>
<path d="M18.2551 28C18.2551 25.1378 20.5781 22.8148 23.4403 22.8148H28.6255V33.1852H23.4403C20.5781 33.1852 18.2551 30.8622 18.2551 28Z" fill="#A259FF"/>
<path d="M18.2551 17.6296C18.2551 14.7674 20.5781 12.4445 23.4403 12.4445H28.6255V22.8148H23.4403C20.5781 22.8148 18.2551 20.4919 18.2551 17.6296Z" fill="#F24E1E"/>
<path d="M28.6255 12.4445H33.8107C36.6729 12.4445 38.9959 14.7674 38.9959 17.6296C38.9959 20.4919 36.6729 22.8148 33.8107 22.8148H28.6255V12.4445Z" fill="#FF7262"/>
<path d="M38.9959 28C38.9959 30.8622 36.6729 33.1852 33.8107 33.1852C30.9485 33.1852 28.6255 30.8622 28.6255 28C28.6255 25.1378 30.9485 22.8148 33.8107 22.8148C36.6729 22.8148 38.9959 25.1378 38.9959 28Z" fill="#1ABCFE"/>
</svg>
