<svg width="57" height="56" viewBox="0 0 57 56" fill="none" xmlns="http://www.w3.org/2000/svg">
<path d="M43.215 19.5427C43.2262 19.5839 43.2319 19.6264 43.232 19.6691V26.3064C43.2321 26.3916 43.2094 26.4753 43.1665 26.549C43.1236 26.6227 43.0618 26.6838 42.9875 26.7262L37.3856 29.9336V36.2908C37.3856 36.4638 37.2931 36.6235 37.1423 36.7106L25.4488 43.4047C25.422 43.4199 25.3928 43.4295 25.3636 43.4398C25.3526 43.4435 25.3423 43.4501 25.3307 43.4531C25.249 43.4745 25.1631 43.4745 25.0813 43.4531C25.068 43.4495 25.0558 43.4422 25.043 43.4374C25.0163 43.4277 24.9883 43.4193 24.9627 43.4047L13.2716 36.7106C13.1974 36.6682 13.1357 36.607 13.0927 36.5333C13.0498 36.4596 13.0272 36.3759 13.0271 36.2908V16.3789C13.0271 16.3354 13.0332 16.293 13.0441 16.2519C13.0478 16.238 13.0563 16.2253 13.0612 16.2113C13.0703 16.1859 13.0788 16.1599 13.0922 16.1363C13.1013 16.1206 13.1147 16.1079 13.1256 16.0934C13.1396 16.074 13.1524 16.0541 13.1688 16.0371C13.1828 16.0232 13.2011 16.0129 13.2169 16.0008C13.2345 15.9863 13.2503 15.9706 13.2704 15.9591H13.271L19.1169 12.612C19.1909 12.5697 19.2748 12.5474 19.3602 12.5474C19.4456 12.5474 19.5295 12.5697 19.6035 12.612L25.4494 15.9591H25.4506C25.47 15.9712 25.4865 15.9863 25.5041 16.0002C25.5199 16.0123 25.5376 16.0232 25.5516 16.0365C25.5686 16.0541 25.5808 16.074 25.5954 16.0934C25.6057 16.1079 25.6197 16.1206 25.6282 16.1363C25.6422 16.1605 25.6501 16.1859 25.6598 16.2113C25.6647 16.2253 25.6732 16.238 25.6769 16.2525C25.6881 16.2937 25.6938 16.3362 25.6939 16.3789V28.8157L30.5652 26.0263V19.6685C30.5652 19.6262 30.5713 19.5832 30.5823 19.5427C30.5865 19.5282 30.5944 19.5155 30.5993 19.5016C30.609 19.4761 30.6176 19.4501 30.6309 19.4265C30.6401 19.4108 30.6534 19.3981 30.6638 19.3836C30.6784 19.3642 30.6906 19.3443 30.7076 19.3273C30.7216 19.3134 30.7392 19.3031 30.755 19.291C30.7733 19.2765 30.7891 19.2608 30.8086 19.2493H30.8092L36.6556 15.9022C36.7296 15.8598 36.8135 15.8375 36.899 15.8375C36.9844 15.8375 37.0683 15.8598 37.1423 15.9022L42.9881 19.2493C43.0088 19.2614 43.0246 19.2765 43.0429 19.2904C43.0581 19.3025 43.0757 19.3134 43.0897 19.3267C43.1067 19.3443 43.1189 19.3642 43.1335 19.3836C43.1445 19.3981 43.1578 19.4108 43.1664 19.4265C43.1803 19.4501 43.1883 19.4761 43.198 19.5016C43.2035 19.5155 43.2114 19.5282 43.215 19.5427ZM42.2575 26.0263V20.5069L40.2118 21.6781L37.3856 23.2963V28.8157L42.2581 26.0263H42.2575ZM36.4117 36.0107V30.4877L33.6317 32.0665L25.6933 36.5721V42.1471L36.4117 36.0107ZM14.0016 17.2167V36.0107L24.7188 42.1465V36.5727L19.1199 33.4216L19.1181 33.4204L19.1157 33.4192C19.0968 33.4083 19.081 33.3926 19.0633 33.3792C19.0481 33.3671 19.0305 33.3575 19.0171 33.3442L19.0159 33.3423C19.0001 33.3272 18.9891 33.3085 18.9757 33.2915C18.9636 33.2752 18.949 33.2613 18.9392 33.2443L18.9386 33.2425C18.9277 33.2244 18.921 33.2026 18.9131 33.182C18.9052 33.1639 18.8948 33.147 18.89 33.1276V33.127C18.8839 33.104 18.8827 33.0798 18.8802 33.0562C18.8778 33.0381 18.8729 33.0199 18.8729 33.0018V20.0061L16.0474 18.3873L14.0016 17.2173V17.2167ZM19.3608 13.5908L14.4901 16.3789L19.3596 19.167L24.2297 16.3783L19.3596 13.5908H19.3608ZM21.8938 30.991L24.7194 29.3734V17.2167L22.6737 18.3879L19.8475 20.0061V32.1627L21.8938 30.991ZM36.899 16.881L32.0288 19.6691L36.899 22.4572L41.7685 19.6685L36.899 16.881ZM36.4117 23.2963L33.5855 21.6781L31.5398 20.5069V26.0263L34.3653 27.6439L36.4117 28.8157V23.2963ZM25.2054 35.7342L32.3488 31.6788L35.9196 29.6523L31.0531 26.866L25.45 30.0739L20.3432 32.9975L25.2054 35.7342Z" fill="#FF2D20"/>
</svg>
