<svg width="56" height="56" viewBox="0 0 56 56" fill="none" xmlns="http://www.w3.org/2000/svg">
<path d="M12.4443 12.4445H43.5554V43.5556H12.4443V12.4445Z" fill="#017ACB"/>
<path d="M27.3824 23.9653H28.8748V26.5417H24.8401V38.0042L24.7331 38.0334C24.5873 38.0723 22.6672 38.0723 22.254 38.0285L21.9234 37.9994V26.5417H17.8887V23.9653L19.1671 23.9508C19.8671 23.941 21.6658 23.941 23.163 23.9508C24.6602 23.9605 26.556 23.9653 27.3824 23.9653ZM38.772 36.7889C38.179 37.416 37.5422 37.766 36.4825 38.0528C36.0206 38.1792 35.9429 38.1841 34.9026 38.1792C33.8623 38.1744 33.7797 38.1744 33.2741 38.0431C31.9665 37.7077 30.9116 37.0515 30.1922 36.123C29.988 35.8605 29.6526 35.316 29.6526 35.248C29.6526 35.2285 29.7012 35.1848 29.7644 35.1556C29.8276 35.1265 29.9588 35.0438 30.0658 34.9806C30.1727 34.9174 30.3672 34.8008 30.4984 34.7327C30.6297 34.6646 31.0088 34.441 31.3394 34.2417C31.6699 34.0424 31.9713 33.882 32.0054 33.882C32.0394 33.882 32.1026 33.9501 32.1512 34.0327C32.4429 34.5237 33.1234 35.1508 33.6047 35.3646C33.9012 35.491 34.5574 35.632 34.8734 35.632C35.1651 35.632 35.6998 35.5056 35.9866 35.3744C36.2929 35.2334 36.4484 35.0924 36.6331 34.8105C36.7595 34.6112 36.7741 34.5577 36.7693 34.1785C36.7693 33.8285 36.7498 33.7313 36.6526 33.5709C36.3804 33.1237 36.0109 32.8903 34.5137 32.2292C32.9679 31.5438 32.2727 31.1355 31.7088 30.5862C31.2908 30.1778 31.2081 30.066 30.9456 29.5556C30.6054 28.8994 30.5616 28.6855 30.5567 27.7084C30.5519 27.023 30.5665 26.7994 30.6394 26.566C30.7415 26.216 31.072 25.5403 31.2227 25.3702C31.5338 25.0056 31.6456 24.8938 31.8644 24.714C32.5255 24.1695 33.5561 23.8098 34.5429 23.7758C34.6547 23.7758 35.0241 23.7952 35.3693 23.8195C36.3609 23.9021 37.0366 24.1452 37.688 24.6653C38.179 25.0542 38.9227 25.9681 38.8498 26.0896C38.8012 26.1626 36.8616 27.4556 36.7352 27.4945C36.6575 27.5188 36.604 27.4896 36.497 27.3633C35.8359 26.5709 35.5686 26.4008 34.9269 26.3619C34.4699 26.3327 34.2269 26.3862 33.9206 26.5903C33.5998 26.8042 33.4443 27.1299 33.4443 27.582C33.4491 28.2431 33.7019 28.5542 34.6352 29.016C35.238 29.3126 35.7533 29.5556 35.7922 29.5556C35.8505 29.5556 37.0998 30.1778 37.4255 30.3723C38.9422 31.2619 39.5595 32.1758 39.72 33.7508C39.8366 34.9369 39.5012 36.0209 38.772 36.7889Z" fill="white"/>
</svg>
