<svg width="56" height="56" viewBox="0 0 56 56" fill="none" xmlns="http://www.w3.org/2000/svg">
<path d="M27.9999 18.6692C23.8516 18.6692 21.2591 20.7427 20.2219 24.8895C21.7777 22.8159 23.5925 22.0386 25.6665 22.5568C26.8499 22.8525 27.6957 23.7111 28.6321 24.6611C30.1571 26.2087 31.9221 27.9998 35.7779 27.9998C39.9258 27.9998 42.5187 25.9262 43.5554 21.7791C42.0001 23.8527 40.1852 24.6304 38.1109 24.1122C36.9279 23.8165 36.0821 22.9579 35.1457 22.0079C33.6207 20.4603 31.8552 18.6692 27.9999 18.6692ZM20.2219 27.9998C16.074 27.9998 13.4811 30.0733 12.4443 34.2204C13.9997 32.1469 15.8145 31.3692 17.8889 31.8878C19.0719 32.1838 19.9177 33.0421 20.8541 33.9917C22.3791 35.5393 24.1446 37.3308 27.9999 37.3308C32.1482 37.3308 34.7407 35.2572 35.7779 31.1101C34.2221 33.1837 32.4073 33.9613 30.3333 33.4428C29.1499 33.1475 28.3041 32.2885 27.3677 31.3389C25.8427 29.7913 24.0776 27.9998 20.2219 27.9998Z" fill="#06B6D4"/>
</svg>
