<svg width="57" height="56" viewBox="0 0 57 56" fill="none" xmlns="http://www.w3.org/2000/svg">
<path d="M41.3306 36.4763C39.6284 36.4335 38.3092 36.6053 37.2027 37.0778C36.8835 37.2065 36.3728 37.2067 36.3302 37.6148C36.5005 37.7866 36.5218 38.0659 36.6707 38.3021C36.9263 38.7316 37.3728 39.3115 37.7772 39.6124C38.2239 39.956 38.6709 40.2995 39.1389 40.6003C39.9688 41.1158 40.9051 41.4164 41.7136 41.932C42.1819 42.2325 42.6497 42.6194 43.1179 42.9415C43.3519 43.1131 43.5008 43.3926 43.7988 43.4998V43.4355C43.6497 43.2421 43.6072 42.9629 43.4584 42.7481C43.2458 42.5333 43.0327 42.34 42.8199 42.1252C42.2029 41.2877 41.437 40.5573 40.6072 39.956C39.9263 39.4834 38.4367 38.8391 38.1602 38.0443C38.1602 38.0443 38.1388 38.0229 38.1177 38.0014C38.5857 37.9585 39.1389 37.7866 39.5859 37.6578C40.3093 37.4643 40.9688 37.5074 41.7136 37.3141C42.054 37.2281 42.3945 37.1207 42.7348 37.0133V36.8201C42.352 36.4335 42.0754 35.918 41.6711 35.5529C40.5859 34.6076 39.3942 33.6842 38.1602 32.911C37.5005 32.4813 36.6493 32.2021 35.9472 31.837C35.6921 31.708 35.2664 31.6437 35.1175 31.4289C34.7344 30.9564 34.5216 30.3336 34.245 29.7751C33.6282 28.5937 33.0322 27.2836 32.5002 26.0379C32.1174 25.2002 31.8833 24.3624 31.4151 23.5893C29.2235 19.938 26.8404 17.7257 23.1807 15.5562C22.3934 15.1052 21.4571 14.9119 20.4571 14.6757C19.9253 14.6541 19.3932 14.6113 18.8613 14.5897C18.5209 14.4393 18.1804 14.0313 17.8825 13.838C16.6699 13.0647 13.5418 11.3895 12.6482 13.6018C12.0736 14.9978 13.4994 16.3724 13.9886 17.0814C14.3506 17.5753 14.8185 18.1337 15.0738 18.6922C15.2228 19.0571 15.2652 19.444 15.4142 19.8305C15.7548 20.7753 16.0738 21.828 16.5208 22.7087C16.7549 23.1597 17.0101 23.6322 17.308 24.0403C17.4783 24.2765 17.7761 24.384 17.84 24.7705C17.5422 25.2002 17.5208 25.8446 17.3505 26.3815C16.5845 28.8086 16.8825 31.8156 17.9676 33.5982C18.3079 34.135 19.1166 35.3167 20.2017 34.8655C21.1593 34.4789 20.9465 33.2547 21.2229 32.1807C21.287 31.9227 21.2445 31.7511 21.372 31.5793V31.6224C21.67 32.2236 21.9677 32.8037 22.2444 33.405C22.9041 34.4573 24.053 35.5529 25.0104 36.2832C25.5213 36.6696 25.9255 37.3355 26.5639 37.5718V37.5073H26.5212C26.3935 37.3139 26.202 37.2281 26.0319 37.0776C25.649 36.6912 25.2232 36.2187 24.9254 35.789C24.0319 34.5861 23.2444 33.2545 22.5423 31.8799C22.202 31.2142 21.9039 30.4839 21.6274 29.8181C21.4996 29.5601 21.4996 29.1736 21.2869 29.0449C20.9677 29.5173 20.4997 29.9255 20.2656 30.5053C19.8615 31.4289 19.8188 32.5673 19.6699 33.7485C19.5847 33.7702 19.6272 33.7485 19.5846 33.7917C18.9039 33.6196 18.6698 32.911 18.4143 32.3095C17.7759 30.7846 17.6695 28.336 18.2229 26.5748C18.3719 26.1237 19.0103 24.7062 18.7549 24.2766C18.6273 23.8685 18.2015 23.6322 17.9676 23.3101C17.6911 22.902 17.393 22.3867 17.2016 21.9354C16.6909 20.7326 16.4355 19.4009 15.8824 18.1981C15.627 17.6396 15.1804 17.0599 14.8185 16.5443C14.4143 15.9645 13.9674 15.5562 13.6482 14.8689C13.5419 14.6328 13.3928 14.2461 13.5631 13.9883C13.6056 13.8165 13.6906 13.7522 13.861 13.7092C14.1376 13.4728 14.925 13.7735 15.2014 13.9024C15.9888 14.2244 16.6483 14.5254 17.308 14.9763C17.6058 15.1912 17.925 15.5993 18.3079 15.7067H18.7548C19.4358 15.8569 20.2016 15.7497 20.84 15.9429C21.9679 16.3079 22.9891 16.8449 23.9041 17.4249C26.6916 19.2076 28.9893 21.7421 30.5428 24.7705C30.7981 25.2644 30.9044 25.7157 31.1385 26.231C31.5855 27.2836 32.1387 28.3575 32.5853 29.3885C33.0322 30.3978 33.4577 31.4289 34.0961 32.2667C34.4153 32.7175 35.6918 32.9539 36.2664 33.1902C36.692 33.3834 37.3517 33.5554 37.7346 33.7916C38.458 34.2424 39.1814 34.7582 39.8624 35.252C40.2029 35.5098 41.2666 36.0468 41.3306 36.4763Z" fill="#00546B"/>
<path d="M19.6271 17.8113C19.2655 17.8113 19.0102 17.8545 18.7549 17.9189V17.9618H18.7974C18.9678 18.3055 19.2655 18.5418 19.4782 18.8424C19.6485 19.186 19.7974 19.5298 19.9677 19.8735C19.9889 19.8519 20.0102 19.8305 20.0102 19.8305C20.3082 19.6156 20.457 19.272 20.457 18.7565C20.3294 18.6063 20.3081 18.4559 20.2017 18.3055C20.0741 18.0906 19.7974 17.9833 19.6271 17.8113Z" fill="#00546B"/>
</svg>
