<svg width="57" height="56" viewBox="0 0 57 56" fill="none" xmlns="http://www.w3.org/2000/svg">
<path d="M43.7988 12.4445H12.5139V43.5556H43.7988V12.4445Z" fill="#F7DF1E"/>
<path d="M33.5294 36.7502C34.1595 37.7734 34.9794 38.5255 36.4294 38.5255C37.6476 38.5255 38.4257 37.92 38.4257 37.0835C38.4257 36.081 37.6262 35.726 36.2854 35.1427L35.5505 34.8292C33.4291 33.9304 32.0197 32.8045 32.0197 30.4242C32.0197 28.2316 33.6997 26.5625 36.3252 26.5625C38.1943 26.5625 39.5381 27.2094 40.5064 28.9032L38.2171 30.365C37.7131 29.4662 37.1693 29.1121 36.3252 29.1121C35.4641 29.1121 34.9183 29.6553 34.9183 30.365C34.9183 31.242 35.4646 31.5971 36.7259 32.1403L37.4608 32.4534C39.9587 33.5185 41.369 34.6045 41.369 37.046C41.369 39.6781 39.2898 41.12 36.4975 41.12C33.7672 41.12 32.0034 39.8262 31.1403 38.1304L33.5294 36.7502ZM23.1443 37.0035C23.6061 37.8183 24.0262 38.5072 25.0363 38.5072C26.0021 38.5072 26.6114 38.1314 26.6114 36.6702V26.7294H29.5512V36.7097C29.5512 39.7368 27.7665 41.1146 25.1614 41.1146C22.8076 41.1146 21.4445 39.9032 20.7512 38.4442L23.1443 37.0035Z" fill="black"/>
</svg>
