<svg width="56" height="56" viewBox="0 0 56 56" fill="none" xmlns="http://www.w3.org/2000/svg">
<path d="M29.8137 27.5549C29.8137 28.154 29.5758 28.7285 29.1522 29.1521C28.7286 29.5756 28.1541 29.8136 27.5551 29.8136C26.956 29.8136 26.3815 29.5756 25.9579 29.1521C25.5344 28.7285 25.2964 28.154 25.2964 27.5549C25.2964 26.9559 25.5344 26.3814 25.9579 25.9578C26.3815 25.5342 26.956 25.2963 27.5551 25.2963C28.1541 25.2963 28.7286 25.5342 29.1522 25.9578C29.5758 26.3814 29.8137 26.9559 29.8137 27.5549Z" fill="#050A14"/>
<path d="M37.579 21.7653C37.089 20.9194 36.4926 20.1399 35.8043 19.4457L33.1926 20.9525C32.3877 20.2651 31.4646 19.7297 30.4682 19.3727C29.5968 20.2472 28.8831 21.2657 28.3586 22.3832C31.2657 22.1854 34.2671 23.2386 37.0524 25.4151L38.6962 24.4653C38.4402 23.5215 38.0648 22.6141 37.579 21.7653Z" fill="#050A14"/>
<path d="M27.5549 39.1285C28.532 39.1254 29.5061 38.9976 30.4498 38.751V35.7374C31.4482 35.3849 32.3736 34.8525 33.1803 34.1667C32.8585 32.9745 32.3333 31.8469 31.6278 30.8335C30.3463 33.4483 27.9354 35.5213 24.657 36.8455V38.7419C25.602 38.9963 26.5762 39.1263 27.5549 39.1285Z" fill="#050A14"/>
<path d="M17.5311 21.7683C17.0446 22.616 16.6682 23.5223 16.4109 24.4653L19.0227 25.9721C18.8289 27.0132 18.8268 28.0809 19.0166 29.1227C20.2096 29.44 21.4484 29.5491 22.6785 29.4453C21.053 27.0284 20.4655 23.9022 20.9556 20.4015L19.3119 19.4518C18.622 20.1449 18.0235 20.9234 17.5311 21.7683Z" fill="#050A14"/>
<path d="M37.579 33.3418C38.066 32.4955 38.4404 31.5884 38.6992 30.6447L36.0905 29.138C36.2853 28.0847 36.2853 27.0193 36.0965 25.9874C34.9035 25.6701 33.6647 25.5609 32.4346 25.6647C34.0601 28.0817 34.6476 31.2079 34.1575 34.7085L35.8013 35.6583C36.4888 34.9639 37.0861 34.1856 37.579 33.3418Z" fill="#00B4FF"/>
<path d="M17.531 33.3417C18.021 34.1875 18.6174 34.9671 19.3056 35.6612L21.9174 34.1544C22.7222 34.8419 23.6454 35.3772 24.6418 35.7343C25.5132 34.8598 26.2269 33.8413 26.7513 32.7237C23.8443 32.9216 20.8429 31.8684 18.0576 29.6919L16.4138 30.6416C16.6726 31.5853 17.047 32.4924 17.531 33.3417Z" fill="#00B4FF"/>
<path d="M27.5551 15.9785C26.5779 15.9816 25.6038 16.1094 24.6602 16.356V19.3696C23.6618 19.7221 22.7364 20.2545 21.9297 20.9403C22.2514 22.1325 22.7766 23.2601 23.4821 24.2735C24.7637 21.6587 27.1746 19.5857 30.453 18.2615V16.3651C29.5074 16.1136 28.5335 15.9837 27.5551 15.9785Z" fill="#00B4FF"/>
<path d="M27.555 13.9908C35.0342 13.9908 41.1192 20.0758 41.1192 27.555C41.1192 35.0342 35.0342 41.1192 27.555 41.1192C20.0758 41.1192 13.9908 35.0342 13.9908 27.555C13.9908 20.0758 20.0758 13.9908 27.555 13.9908ZM27.555 12C23.4296 12 19.4731 13.6388 16.556 16.556C13.6388 19.4731 12 23.4296 12 27.555C12 31.6804 13.6388 35.6369 16.556 38.554C19.4731 41.4712 23.4296 43.11 27.555 43.11C31.6804 43.11 35.6369 41.4712 38.554 38.554C41.4712 35.6369 43.11 31.6804 43.11 27.555C43.11 23.4296 41.4712 19.4731 38.554 16.556C35.6369 13.6388 31.6804 12 27.555 12Z" fill="#00B4FF"/>
</svg>
