<svg width="56" height="56" viewBox="0 0 56 56" fill="none" xmlns="http://www.w3.org/2000/svg">
<path d="M26.7262 12.7764C27.4976 12.3348 28.5024 12.3328 29.2732 12.7764C33.1507 14.9674 37.0295 17.155 40.9064 19.3473C41.6356 19.7581 42.1234 20.5696 42.1159 21.4098V34.5919C42.1214 35.4669 41.5854 36.2978 40.8161 36.6992C36.9513 38.8782 33.0884 41.0598 29.2243 43.2387C28.4369 43.6889 27.412 43.6543 26.6492 43.1672C25.4906 42.4955 24.3299 41.8271 23.1711 41.1561C22.9343 41.0149 22.6674 40.9026 22.5002 40.673C22.648 40.4738 22.9123 40.4489 23.127 40.362C23.6107 40.2082 24.0549 39.9613 24.4992 39.7217C24.6116 39.6448 24.7487 39.6743 24.8564 39.7431C25.8472 40.3112 26.8293 40.8958 27.8234 41.4585C28.0355 41.5809 28.2502 41.4184 28.4315 41.3173C32.2241 39.1738 36.0213 37.0384 39.8132 34.8943C39.9537 34.8267 40.0314 34.6775 40.02 34.5236C40.0226 30.1751 40.0206 25.8259 40.0213 21.4774C40.0374 21.3028 39.9363 21.1422 39.7784 21.0708C35.927 18.9018 32.0776 16.7295 28.2268 14.56C28.1601 14.5141 28.0811 14.4895 28.0001 14.4894C27.9192 14.4893 27.8401 14.5136 27.7732 14.5593C23.9225 16.7295 20.0737 18.9038 16.223 21.0727C16.0656 21.1442 15.96 21.3021 15.9788 21.4774C15.9794 25.8259 15.9788 30.1751 15.9788 34.5243C15.9721 34.5994 15.9886 34.6747 16.026 34.7402C16.0635 34.8056 16.12 34.858 16.1882 34.8903C17.2158 35.473 18.2447 36.0516 19.2729 36.6323C19.8522 36.9441 20.5635 37.1294 21.2017 36.8905C21.7649 36.6885 22.1597 36.1138 22.1489 35.5158C22.1543 31.1927 22.1463 26.8689 22.1529 22.5465C22.1389 22.3545 22.3209 22.196 22.5075 22.214C23.0012 22.2107 23.4957 22.2074 23.9894 22.2154C24.1955 22.2107 24.3373 22.4174 24.3118 22.6107C24.3098 26.9612 24.3171 31.3118 24.3085 35.6622C24.3098 36.8217 23.8335 38.0833 22.761 38.6506C21.4398 39.335 19.8068 39.1899 18.5015 38.5336C17.3716 37.9696 16.2932 37.304 15.1833 36.6998C14.412 36.3006 13.8787 35.4663 13.8841 34.592V21.4098C13.876 20.5522 14.3832 19.726 15.1351 19.3212C18.9993 17.1405 22.8627 14.9581 26.7262 12.7764Z" fill="#8CC84B"/>
<path d="M30.0973 21.9076C31.7826 21.7991 33.5868 21.8433 35.1034 22.6736C36.2775 23.3098 36.9285 24.6451 36.9492 25.9496C36.9164 26.1255 36.7325 26.2226 36.5645 26.2105C36.0755 26.2099 35.5865 26.2172 35.0975 26.2072C34.8901 26.2152 34.7695 26.0239 34.7435 25.8406C34.603 25.2164 34.2626 24.5982 33.6751 24.2972C32.7733 23.8457 31.7276 23.8684 30.7442 23.8778C30.0264 23.9159 29.2544 23.9781 28.6462 24.4002C28.1793 24.72 28.0374 25.3655 28.2041 25.8854C28.3612 26.2587 28.7921 26.3792 29.1447 26.4902C31.1757 27.0214 33.328 26.9685 35.3202 27.6676C36.145 27.9526 36.9519 28.5066 37.2342 29.3702C37.6035 30.5276 37.4416 31.9111 36.6182 32.8403C35.9503 33.605 34.9777 34.0212 34.0076 34.2472C32.7171 34.535 31.3778 34.5423 30.0672 34.4145C28.8349 34.274 27.5524 33.9502 26.6011 33.1106C25.7876 32.4042 25.3902 31.3036 25.4297 30.2413C25.4391 30.0619 25.6177 29.9368 25.7896 29.9516C26.282 29.9476 26.7744 29.9463 27.2668 29.9522C27.4635 29.9382 27.6093 30.1081 27.6194 30.2935C27.7102 30.8882 27.9337 31.5124 28.4523 31.8649C29.4531 32.5106 30.7088 32.4664 31.8547 32.4844C32.8041 32.4423 33.8698 32.4296 34.6445 31.8021C35.0533 31.4442 35.1744 30.8454 35.0639 30.3303C34.9442 29.8954 34.4893 29.6927 34.0986 29.5602C32.0936 28.926 29.9173 29.1561 27.9317 28.4389C27.1256 28.154 26.3461 27.6154 26.0364 26.7873C25.6043 25.6152 25.8023 24.1654 26.7121 23.2676C27.5992 22.3745 28.8798 22.0306 30.0973 21.9075V21.9076Z" fill="#8CC84B"/>
</svg>
