<svg width="57" height="56" viewBox="0 0 57 56" fill="none" xmlns="http://www.w3.org/2000/svg">
<path fill-rule="evenodd" clip-rule="evenodd" d="M19.0119 15.6083C17.2268 15.6083 15.9059 17.162 15.9651 18.847C16.0219 20.4658 15.9481 22.5624 15.4174 24.2722C14.8847 25.9867 13.9846 27.0733 12.5139 27.2127V28.7872C13.9846 28.927 14.8847 30.013 15.4173 31.7278C15.9481 33.4376 16.0218 35.5342 15.965 37.153C15.9059 38.8377 17.2268 40.3917 19.0121 40.3917H37.3032C39.0883 40.3917 40.4089 38.8379 40.3498 37.153C40.293 35.5342 40.3668 33.4376 40.8975 31.7278C41.4302 30.013 42.3281 28.9266 43.7988 28.7872V27.2127C42.3282 27.073 41.4302 25.987 40.8975 24.2722C40.3667 22.5626 40.293 20.4658 40.3498 18.847C40.4089 17.1623 39.0883 15.6083 37.3032 15.6083H19.0116H19.0119ZM33.724 30.8641C33.724 33.1842 31.9838 34.5913 29.0957 34.5913H24.1795C24.0388 34.5913 23.904 34.5358 23.8045 34.4369C23.7051 34.338 23.6492 34.2039 23.6492 34.064V21.936C23.6492 21.7961 23.7051 21.662 23.8045 21.5631C23.904 21.4642 24.0388 21.4087 24.1795 21.4087H29.0677C31.4759 21.4087 33.0563 22.7059 33.0563 24.6975C33.0563 26.0953 31.9931 27.3468 30.6386 27.566V27.6389C32.4825 27.84 33.724 29.11 33.724 30.8641ZM28.5597 23.0802H25.7565V27.0177H28.1175C29.9426 27.0177 30.949 26.2869 30.949 24.9805C30.9488 23.7562 30.0836 23.0802 28.5597 23.0802ZM25.7565 28.58V32.9192H28.6628C30.5631 32.9192 31.5697 32.161 31.5697 30.7359C31.5697 29.3109 30.5349 28.5798 28.5406 28.5798H25.7565V28.58Z" fill="#7952B3"/>
</svg>
